<svg id="图层_1" data-name="图层 1" xmlns="http://www.w3.org/2000/svg" viewBox="0 0 210 68"><defs><style>.cls-1,.cls-2{fill:#e10601;}.cls-1,.cls-3{fill-rule:evenodd;}.cls-3{fill:#2319dc;}</style></defs><title>logo</title><path class="cls-1" d="M26.6,48.71c4.1-2.17,4.69-5.6,4.69-9.34,0-6-5.57-8.52-10-8.52H0V66.57H21.28c3.63,0,10-2.51,10-8.54,0-3.75-.59-7.17-4.69-9.33M19.87,60H8V52H19.87a4,4,0,0,1,0,8Zm0-14.52H8v-8H19.87a4,4,0,0,1,0,8Z"/><path class="cls-1" d="M51.54,40.12H35v5.34H48.79c.76,0,3.51.19,3.51,2.88v2.29H40.7c-9.41,0-9.41,15.3-.72,15.3H59.25V47.62c0-2.56-.57-7.5-7.71-7.5m.67,21.08H42.07c-3.81,0-3.91-5.87.37-5.87h9.77Z"/><rect class="cls-2" x="62.68" y="40.12" width="7.52" height="25.81"/><rect class="cls-2" x="62.68" y="30.85" width="7.52" height="6.58"/><path class="cls-3" d="M89.81,52.49c0,3.79,2.9,4.49,2.9,4.49H97V48h-3.8c-3.73,0-3.38,4.49-3.38,4.49"/><path class="cls-3" d="M130.06,53.41s-.25-3.41-9.2-10.87-8.68-10.5-11-12.75a8.57,8.57,0,0,0-5.94-2.63s-4.68-.83-9.38,5.29a35.86,35.86,0,0,1-10.8,10.79s-12,7.82-5.26,19.24c1.27,2.18,6.24,6.72,18.48,3.76a52.87,52.87,0,0,1,7-.94,31.59,31.59,0,0,1,9.26,1.79,14.76,14.76,0,0,0,10.89-.46c3.07-1.44,7.15-6.09,6-13.22m-28.45,7.68H91.7c-1.61,0-7-2.59-7-8.22s2.32-8.72,8.08-8.72h4.35V38h4.44Zm17.77,0H108a4.09,4.09,0,0,1-4.26-4.4V44.59h4.58v9.9a2,2,0,0,0,1.85,2.2h4.36V44.59h4.89Z"/><path class="cls-3" d="M126.91,20.7a6,6,0,0,0-6.56,4.05c-1.71,4.9-2.37,14,4.69,15.49,0,0,4.32,1,6.71-1.82A12.46,12.46,0,0,0,134.69,29c-.16-3.68-1.94-7.39-7.78-8.26"/><path class="cls-3" d="M115.8,1.71S110.18,1,107.55,10s3,11.36,5.84,11.36,8.38-2.2,9.27-9.16-2.27-9.95-6.86-10.46"/><path class="cls-3" d="M95.33.16s-6.2-.15-6.7,9.19,4,11,7.47,11.3S102.74,17.45,103,10,99.47-.36,95.33.16"/><path class="cls-3" d="M79.23,15.64S71.84,17,73.1,27.78c0,0,1.81,8.92,9.46,7.69s6.26-9.45,6-10.9S87,15,79.23,15.64"/><path class="cls-1" d="M171.15,37.11V32H138v5.13h14.67l-1.63,3.31H138.5V66.11h28.72s3.48.47,3.48-3.55V40.42h-12.2l1.42-3.31Zm-6.5,23.78H144.78V55.58h19.87Zm0-15.86v5.3H144.78V45Z"/><rect class="cls-2" x="175.47" y="31.98" width="5.53" height="33.83"/><rect class="cls-2" x="175.47" y="31.98" width="34.53" height="4.51"/><rect class="cls-2" x="190.57" y="29.54" width="6.04" height="6.95"/><rect class="cls-2" x="182.07" y="39.3" width="27.93" height="3.69"/><path class="cls-1" d="M201.42,37.68v7.4s.15,1.42-1.88,1.42h-9.45V37.68h-4.86V50.33h15.91c4.15,0,5.1-1.86,5.1-3.83V37.68Z"/><rect class="cls-2" x="182.81" y="52.02" width="26.88" height="3.57"/><path class="cls-1" d="M182.81,55.58l8,5.31,4.9,2.57s3.7,2.35,6.86,2.35H210V61.67h-5.75a6.12,6.12,0,0,1-3.65-.85l-9.11-5.24Z"/><path class="cls-1" d="M201.42,55.58h8.27L193.6,64.35a10.57,10.57,0,0,1-5.19,1.79h-6.34v-3.7h4.12s1.82.24,4.9-1.46Z"/></svg>